<?xml version="1.0" encoding="UTF-8"?><svg id="Layer_1" xmlns="http://www.w3.org/2000/svg" viewBox="0 0 2505 945"><defs><style>.cls-1{fill:#0206a8;}</style></defs><path class="cls-1" d="m913.05,345.09h0c-27.62,0-59.15,4.68-85.12,9.56v42.49c28.1-5.47,59.89-9.86,84.48-9.86,35.3,0,55.39,9.5,55.46,44.31v13.83c-23.71-.05-30.96-.1-63.57.05-58.83.64-96.61,16.56-96.61,79.5s35.97,79.45,77.08,79.45c29.38,0,56.07-9.7,84.88-26.47l1.74,20.86h46.02v-168.11c.01-67.35-48.75-85.61-104.36-85.61Zm54.82,196.46c-26.7,14.47-48.01,21.54-70.57,21.54-26.74,0-39.34-9.66-39.33-41.75,0-34.37,13.66-40.54,50.52-40.79h59.38v61Z"/><path class="cls-1" d="m1210.4,345.1h0c-27.92,0-49.91,6.86-84.8,26.45l-2.5-20.84h-44.63v340.46s49.7.01,49.7.01v-111.77c33.41,18.5,54.97,25.02,82.06,25.02,74.92,0,95.25-49.79,95.25-130.01s-20.33-129.33-95.09-129.33Zm-13.79,215.75h0c-19.24.01-34.89-4.29-68.43-22.71v-126.74c33.55-18.42,49.19-22.71,68.44-22.71,45.67,0,57.89,24.48,57.89,86.07s-12.26,86.08-57.89,86.08Z"/><path class="cls-1" d="m1403.93,350.72h-44.66l-.03,248.11h49.71l.02-178.32c47.3-24.96,72.85-33.17,97.4-33.17v-42.23c-28.32,0-56.53,9.63-99.29,31.96l-3.15-26.35Z"/><path class="cls-1" d="m1668.07,518.93l-73.17-168.22h-53.39l103.82,233.58-14.42,41.45c-5.41,15.66-16.69,24.94-33.98,24.94h-20.03v40.37h26.52c33.13,0,58.75-19.36,69.3-48.63l106.14-291.69h-52.27l-58.52,168.22Z"/><path class="cls-1" d="m1904.3,450.44c-39.82-12.12-45.57-15.92-45.59-34.02.18-17.43,5.37-29.21,47.23-29.21,21.83,0,48.73,3.11,71.51,7.88v-42.41c-19.24-3.96-46.29-7.87-73.81-7.87-72.97,0-95.26,27.83-95.18,74.13-.08,47.34,23.64,55.95,81.83,74.29,38.77,12.05,49.63,15.07,49.63,36.11,0,25.1-15.67,32.7-50.71,32.7-26.31,0-52.84-4.24-80.76-10.56v42.84c29.04,6.38,55.44,10.12,82.15,10.12,58.85,0,101.33-18.17,101.33-75.49s-40.26-64.17-87.63-78.52Z"/><path class="cls-1" d="m2145.5,345.1c-84.81,0-112.56,48.05-112.56,130.78s27.57,128.56,116.47,128.56c34.39,0,68.3-6.85,92.06-19.49l-.02-41.89c-24.42,12.43-59.14,18.3-88.81,18.3-49.24,0-65.86-16.86-68.23-70.22h166.18v-.04l.11.03c.47-9,1.11-12.24,1.27-19.04,3.11-56.81-4.42-126.99-106.47-126.99Zm56.3,109.16l-117,.02c3.34-47.74,19.35-66.44,59.26-66.44,54.74,0,58.69,34.72,57.74,66.41Z"/><path class="cls-1" d="m447.04,258.73c-21.01-12.13-47.87-4.93-60,16.08l-41.2,71.36,102.98-86.41-1.78-1.03Z"/><path class="cls-1" d="m644.73,343.86c0-24.26-19.67-43.93-43.93-43.93h-29.01l-14.5-25.12c-12.13-21.01-38.99-28.21-60-16.08l-151.45,87.44h252.66l46.24,12.39v-14.7Z"/><path class="cls-1" d="m685.93,447.38c12.13-21.01,4.93-47.87-16.08-60l-71.36-41.2,86.41,102.98,1.03-1.78Z"/><path class="cls-1" d="m586.1,645.07h14.7c24.26,0,43.93-19.67,43.93-43.93v-29.01l25.12-14.5c21.01-12.13,28.21-38.99,16.08-60l-87.44-151.45v252.66l-12.39,46.24Z"/><path class="cls-1" d="m497.29,686.27c21.01,12.13,47.87,4.93,60-16.08l41.2-71.36-102.98,86.41,1.78,1.03Z"/><path class="cls-1" d="m299.59,586.44v14.7c0,24.26,19.67,43.93,43.93,43.93h29.01l14.5,25.12c12.13,21.01,38.99,28.21,60,16.08l151.45-87.44h-252.66l-46.24-12.39Z"/><path class="cls-1" d="m358.22,299.93h-14.7c-24.26,0-43.93,19.67-43.93,43.93v29.01l-25.12,14.5c-21.01,12.13-28.21,38.99-16.08,60l87.44,151.45v-252.66l12.39-46.24Z"/><path class="cls-1" d="m258.39,497.62c-12.13,21.01-4.93,47.87,16.08,60l71.36,41.2-86.41-102.98-1.03,1.78Z"/></svg>